M48
;DRILL file {KiCad 4.0.7} date 2017 November 23, Thursday 22:58:30
;FORMAT={3:3/ absolute / metric / suppress leading zeros}
FMAT,2
METRIC,TZ
T1C0.400
T2C0.800
T3C1.000
T4C1.199
T5C1.200
T6C3.500
%
G90
G05
M71
T1
X36290Y-40208
X38903Y-37001
X39624Y-35641
X41385Y-35403
X51475Y-148719
X52558Y-302418
X53330Y-210171
X53410Y-163028
X55250Y-141561
X56892Y-66446
X62820Y-66654
X63526Y-171821
X64023Y-144943
X64083Y-221584
X67231Y-222659
X71226Y-225239
X72131Y-270603
X75463Y-221073
X75896Y-274728
X77247Y-222436
X77685Y-223435
X80195Y-221033
X80371Y-224194
X81489Y-144218
X81954Y-93502
X82091Y-220687
X82167Y-204107
X83050Y-148551
X84037Y-205288
X84120Y-88228
X84291Y-226139
X84448Y-126286
X84533Y-272967
X84557Y-158222
X84709Y-146865
X84797Y-204615
X84896Y-66580
X84961Y-264881
X84988Y-226585
X95573Y-310793
X98138Y-310343
X108419Y-64214
X119572Y-70276
X119951Y-123223
X120706Y-79075
X122507Y-75178
X135673Y-53186
X140289Y-52281
X154237Y-69500
X155157Y-152365
X155576Y-117778
X156081Y-182987
X156282Y-184044
X156319Y-148810
X156405Y-187830
X156566Y-153883
X156641Y-118829
X156792Y-189194
X157174Y-114466
X157502Y-163794
X157504Y-235390
X157507Y-231561
X157509Y-226237
X157514Y-93506
X157514Y-165410
X157516Y-75898
X157517Y-111967
X157518Y-89047
X157523Y-92501
X157532Y-162865
X157537Y-166853
X157577Y-234544
X157592Y-87774
X157714Y-86503
X157740Y-229208
X157827Y-286909
X157859Y-152547
X158000Y-164764
X158044Y-201271
X158232Y-227150
X158235Y-119020
X158361Y-193569
X158376Y-205937
X158399Y-205108
X158435Y-197825
X158446Y-120112
X158518Y-103188
X158547Y-84731
X158636Y-231765
X158663Y-234603
X158687Y-157044
X158784Y-204180
X158814Y-201924
X158833Y-162136
X158848Y-291331
X158876Y-233104
X158960Y-87446
X158987Y-92161
X158994Y-292464
X159045Y-230372
X159132Y-152663
X159319Y-150423
X159350Y-192526
X159631Y-310792
X160584Y-149406
X161429Y-84826
X161840Y-148998
X162102Y-220655
X162313Y-85417
X163183Y-86427
X164004Y-148833
X164426Y-87966
X164744Y-220811
X165058Y-186581
X165115Y-64387
X165576Y-198601
X165762Y-148883
X167396Y-81979
X171028Y-84250
X171749Y-83203
X173800Y-299056
X173996Y-186581
X174617Y-150415
X174739Y-84550
X174925Y-192468
X175004Y-299858
X175200Y-228852
X175822Y-303035
X176607Y-40377
X177092Y-119020
X177515Y-148595
X177520Y-83997
X179329Y-147545
X181075Y-190336
X181664Y-288274
X183902Y-148257
X185019Y-230883
X185167Y-148284
X185486Y-219398
X186012Y-189133
X186120Y-162159
X186540Y-163794
X186886Y-189559
X187745Y-229364
X188253Y-163351
X188598Y-112712
X188956Y-101563
X188956Y-159082
X188956Y-188284
X189001Y-151347
X189066Y-164308
X189412Y-227878
X189416Y-85279
X189749Y-231009
X189870Y-163802
X189944Y-235390
X189990Y-165503
X190069Y-152939
X190127Y-113044
X191188Y-118272
X192505Y-73733
X192524Y-306833
X192537Y-198010
X193042Y-69778
X194065Y-69640
X206465Y-40799
X213220Y-43215
X224207Y-97549
X224997Y-91971
X227529Y-69793
X228182Y-74292
X228884Y-75795
X229681Y-73315
X230280Y-75250
X236492Y-301070
X237139Y-311244
X238977Y-311244
X241958Y-58528
X244803Y-52075
X245253Y-53572
X253670Y-81165
X257973Y-76979
X259792Y-114828
X259946Y-75591
X259957Y-66834
X259959Y-85553
X260927Y-289120
X261135Y-148884
X261339Y-118272
X262501Y-206122
X262504Y-166152
X262515Y-70271
X262527Y-73311
X262528Y-199429
X262530Y-192948
X262532Y-198359
X262536Y-267748
X262538Y-125609
X262542Y-96273
X262584Y-208548
X262604Y-233684
X262618Y-71892
X262637Y-97193
X262638Y-76736
X262694Y-196126
X262766Y-135054
X262781Y-135954
X262872Y-194534
X262906Y-136920
X262912Y-118240
X263000Y-258772
X263034Y-133803
X263073Y-220993
X263107Y-159783
X263303Y-70652
X263369Y-205707
X263424Y-201098
X263525Y-154387
X263532Y-156918
X263637Y-198091
X263744Y-137022
X263810Y-163082
X263878Y-232816
X263948Y-71931
X264153Y-196891
X264195Y-126531
X264276Y-231904
X264300Y-116396
X264394Y-231065
X264619Y-280436
X264743Y-200679
X264814Y-159143
X264830Y-186000
X264833Y-73649
X264876Y-71498
X265226Y-195297
X265226Y-200030
X265231Y-95932
X265669Y-281059
X266128Y-127533
X266452Y-116148
X266547Y-61878
X266656Y-70355
X267140Y-150937
X267234Y-149934
X268466Y-71157
X268708Y-224824
X268862Y-153341
X268972Y-152025
X269147Y-77574
X269575Y-279871
X270620Y-221821
X270711Y-222781
X271254Y-280133
X271891Y-287025
X272718Y-198771
X273588Y-198122
X274948Y-125781
X275602Y-199130
X276078Y-126687
X276643Y-199497
X278558Y-74395
X281727Y-199087
X282077Y-257961
X284700Y-83201
X292354Y-31371
X292648Y-73060
X292812Y-115097
X293344Y-73769
X293460Y-204500
X293513Y-80663
X293676Y-163028
X294177Y-74296
X294262Y-258162
X294304Y-96273
X294563Y-80093
X294584Y-314166
X294834Y-78211
X294957Y-97193
X294992Y-231904
X295275Y-36199
X297413Y-82537
X299202Y-78422
X308636Y-30763
T2
X31750Y-62250
X36750Y-62250
X45050Y-39750
X54500Y-277880
X54500Y-285500
X54750Y-68630
X54750Y-76250
X54750Y-208630
X54750Y-216250
X54800Y-81000
X55250Y-138880
X55250Y-146500
X57000Y-273750
X57040Y-277880
X57040Y-285500
X57290Y-68630
X57290Y-76250
X57290Y-208630
X57290Y-216250
X57500Y-204250
X57750Y-39750
X57750Y-134500
X57790Y-138880
X57790Y-146500
X59580Y-277880
X59580Y-285500
X59830Y-68630
X59830Y-76250
X59830Y-208630
X59830Y-216250
X60330Y-138880
X60330Y-146500
X62120Y-277880
X62120Y-285500
X62370Y-68630
X62370Y-76250
X62370Y-208630
X62370Y-216250
X62870Y-138880
X62870Y-146500
X64660Y-277880
X64660Y-285500
X64910Y-68630
X64910Y-76250
X64910Y-208630
X64910Y-216250
X65410Y-138880
X65410Y-146500
X66750Y-61500
X67200Y-277880
X67200Y-285500
X67450Y-68630
X67450Y-76250
X67450Y-208630
X67450Y-216250
X67500Y-81000
X67950Y-138880
X67950Y-146500
X69700Y-273750
X69740Y-277880
X69740Y-285500
X69990Y-68630
X69990Y-76250
X69990Y-208630
X69990Y-216250
X70200Y-204250
X70450Y-134500
X70490Y-138880
X70490Y-146500
X71750Y-61500
X72280Y-277880
X72280Y-285500
X72530Y-68630
X72530Y-76250
X72530Y-208630
X72530Y-216250
X73030Y-138880
X73030Y-146500
X74820Y-277880
X74820Y-285500
X75070Y-68630
X75070Y-76250
X75070Y-208630
X75070Y-216250
X75570Y-138880
X75570Y-146500
X77360Y-277880
X77360Y-285500
X77610Y-68630
X77610Y-76250
X77610Y-208630
X77610Y-216250
X78110Y-138880
X78110Y-146500
X79900Y-277880
X79900Y-285500
X80050Y-40000
X80150Y-68630
X80150Y-76250
X80150Y-208630
X80150Y-216250
X80650Y-138880
X80650Y-146500
X82440Y-277880
X82440Y-285500
X82690Y-68630
X82690Y-76250
X82690Y-208630
X82690Y-216250
X83190Y-138880
X83190Y-146500
X92750Y-40000
X101750Y-62250
X106750Y-62250
X114800Y-40000
X127500Y-40000
X136750Y-62250
X141750Y-62250
X149800Y-40000
X159750Y-138130
X159750Y-145750
X159750Y-208380
X159750Y-216000
X160000Y-278630
X160000Y-286250
X160500Y-68880
X160500Y-76500
X160550Y-81000
X162250Y-133750
X162290Y-138130
X162290Y-145750
X162290Y-208380
X162290Y-216000
X162500Y-40000
X162500Y-203750
X162500Y-274000
X162540Y-278630
X162540Y-286250
X163040Y-68880
X163040Y-76500
X164830Y-138130
X164830Y-145750
X164830Y-208380
X164830Y-216000
X165080Y-278630
X165080Y-286250
X165580Y-68880
X165580Y-76500
X167370Y-138130
X167370Y-145750
X167370Y-208380
X167370Y-216000
X167620Y-278630
X167620Y-286250
X168120Y-68880
X168120Y-76500
X169910Y-138130
X169910Y-145750
X169910Y-208380
X169910Y-216000
X170160Y-278630
X170160Y-286250
X170660Y-68880
X170660Y-76500
X171750Y-61500
X172450Y-138130
X172450Y-145750
X172450Y-208380
X172450Y-216000
X172700Y-278630
X172700Y-286250
X173200Y-68880
X173200Y-76500
X173250Y-81000
X174950Y-133750
X174990Y-138130
X174990Y-145750
X174990Y-208380
X174990Y-216000
X175200Y-203750
X175200Y-274000
X175240Y-278630
X175240Y-286250
X175740Y-68880
X175740Y-76500
X176750Y-61500
X177530Y-138130
X177530Y-145750
X177530Y-208380
X177530Y-216000
X177780Y-278630
X177780Y-286250
X178280Y-68880
X178280Y-76500
X180070Y-138130
X180070Y-145750
X180070Y-208380
X180070Y-216000
X180320Y-278630
X180320Y-286250
X180820Y-68880
X180820Y-76500
X182610Y-138130
X182610Y-145750
X182610Y-208380
X182610Y-216000
X182860Y-278630
X182860Y-286250
X183360Y-68880
X183360Y-76500
X185050Y-40000
X185150Y-138130
X185150Y-145750
X185150Y-208380
X185150Y-216000
X185400Y-278630
X185400Y-286250
X185900Y-68880
X185900Y-76500
X187690Y-138130
X187690Y-145750
X187690Y-208380
X187690Y-216000
X187940Y-278630
X187940Y-286250
X188440Y-68880
X188440Y-76500
X197750Y-40000
X206000Y-61500
X211000Y-61500
X219800Y-40000
X232500Y-40000
X235000Y-68880
X235000Y-76500
X237540Y-68880
X237540Y-76500
X240080Y-68880
X240080Y-76500
X241500Y-61250
X242620Y-68880
X242620Y-76500
X245160Y-68880
X245160Y-76500
X246500Y-61250
X247700Y-68880
X247700Y-76500
X250240Y-68880
X250240Y-76500
X252780Y-68880
X252780Y-76500
X255300Y-40000
X265000Y-138380
X265000Y-146000
X265000Y-208630
X265000Y-216250
X265000Y-277880
X265000Y-285500
X265250Y-68630
X265250Y-76250
X265300Y-81000
X267000Y-203750
X267500Y-133750
X267500Y-273250
X267540Y-138380
X267540Y-146000
X267540Y-208630
X267540Y-216250
X267540Y-277880
X267540Y-285500
X267790Y-68630
X267790Y-76250
X268000Y-40000
X270080Y-138380
X270080Y-146000
X270080Y-208630
X270080Y-216250
X270080Y-277880
X270080Y-285500
X270330Y-68630
X270330Y-76250
X272620Y-138380
X272620Y-146000
X272620Y-208630
X272620Y-216250
X272620Y-277880
X272620Y-285500
X272870Y-68630
X272870Y-76250
X275160Y-138380
X275160Y-146000
X275160Y-208630
X275160Y-216250
X275160Y-277880
X275160Y-285500
X275410Y-68630
X275410Y-76250
X276250Y-61750
X277700Y-138380
X277700Y-146000
X277700Y-208630
X277700Y-216250
X277700Y-277880
X277700Y-285500
X277950Y-68630
X277950Y-76250
X278000Y-81000
X279700Y-203750
X280200Y-133750
X280200Y-273250
X280240Y-138380
X280240Y-146000
X280240Y-208630
X280240Y-216250
X280240Y-277880
X280240Y-285500
X280490Y-68630
X280490Y-76250
X281250Y-61750
X282780Y-138380
X282780Y-146000
X282780Y-208630
X282780Y-216250
X282780Y-277880
X282780Y-285500
X283030Y-68630
X283030Y-76250
X285320Y-138380
X285320Y-146000
X285320Y-208630
X285320Y-216250
X285320Y-277880
X285320Y-285500
X285570Y-68630
X285570Y-76250
X287860Y-138380
X287860Y-146000
X287860Y-208630
X287860Y-216250
X287860Y-277880
X287860Y-285500
X288110Y-68630
X288110Y-76250
X289800Y-40000
X290400Y-138380
X290400Y-146000
X290400Y-208630
X290400Y-216250
X290400Y-277880
X290400Y-285500
X290650Y-68630
X290650Y-76250
X292940Y-138380
X292940Y-146000
X292940Y-208630
X292940Y-216250
X292940Y-277880
X292940Y-285500
X293190Y-68630
X293190Y-76250
X302500Y-40000
T3
X31750Y-54750
X34290Y-54750
X36830Y-54750
X66750Y-54750
X69290Y-54750
X71830Y-54750
X101750Y-54750
X104290Y-54750
X106830Y-54750
X136500Y-54750
X139040Y-54750
X141580Y-54750
X171500Y-54750
X174040Y-54750
X176580Y-54750
X205750Y-54750
X208290Y-54750
X210830Y-54750
X241500Y-54750
X244040Y-54750
X246580Y-54750
X276250Y-54750
X278790Y-54750
X281330Y-54750
X312000Y-60890
X312000Y-63430
X312000Y-65970
X312000Y-68510
X312000Y-71050
X312000Y-73590
X312000Y-76130
X312000Y-78670
X312000Y-81210
X312000Y-83750
T4
X312000Y-49500
X312000Y-53000
T5
X42500Y-54750
X42500Y-124750
X42500Y-159750
X42500Y-194750
X42500Y-229750
X42500Y-264750
X42500Y-299750
X42750Y-89750
X51250Y-46000
X51250Y-63500
X51250Y-81000
X51250Y-98500
X51250Y-116000
X51250Y-133500
X51250Y-151000
X51250Y-168500
X51250Y-186000
X51250Y-203500
X51250Y-221000
X51250Y-238500
X51250Y-256000
X51250Y-273500
X51250Y-291000
X51250Y-308500
X60000Y-54750
X60000Y-89750
X60000Y-124750
X60000Y-159750
X60000Y-194750
X60000Y-229750
X60000Y-264750
X60000Y-299750
X77500Y-54750
X77500Y-89750
X77500Y-124750
X77500Y-159750
X77500Y-194750
X77500Y-229750
X77500Y-264750
X77500Y-299750
X86250Y-46000
X86250Y-63500
X86250Y-81000
X86250Y-98500
X86250Y-116000
X86250Y-133500
X86250Y-151000
X86250Y-168500
X86250Y-186000
X86250Y-203500
X86250Y-221000
X86250Y-238500
X86250Y-256000
X86250Y-273500
X86250Y-291000
X86250Y-308500
X95000Y-54750
X95000Y-89750
X95000Y-124750
X95000Y-159750
X95000Y-194750
X95000Y-229750
X95000Y-264750
X95000Y-299750
X112500Y-54750
X112500Y-89750
X112500Y-124750
X112500Y-159750
X112500Y-194750
X112500Y-229750
X112500Y-264750
X112500Y-299750
X121250Y-46000
X121250Y-63500
X121250Y-81000
X121250Y-98750
X121250Y-116000
X121250Y-133500
X121250Y-151000
X121250Y-168500
X121250Y-186000
X121250Y-203500
X121250Y-221000
X121250Y-238500
X121250Y-256000
X121250Y-273500
X121250Y-291000
X121250Y-308500
X130000Y-54750
X130000Y-89750
X130000Y-124750
X130000Y-159750
X130000Y-194750
X130000Y-229750
X130000Y-264750
X130000Y-299750
X147500Y-54750
X147500Y-89750
X147500Y-124750
X147500Y-159750
X147500Y-194750
X147500Y-229750
X147500Y-264750
X147500Y-299750
X156250Y-46000
X156250Y-63500
X156250Y-81000
X156250Y-98500
X156250Y-116000
X156250Y-133500
X156250Y-151000
X156250Y-168500
X156250Y-186000
X156250Y-203500
X156250Y-221000
X156250Y-238500
X156250Y-256000
X156250Y-273500
X156250Y-291000
X156250Y-308500
X165000Y-54750
X165000Y-89750
X165000Y-124750
X165000Y-159750
X165000Y-194750
X165000Y-229750
X165000Y-264750
X165000Y-299750
X182500Y-54750
X182500Y-89750
X182500Y-124750
X182500Y-159750
X182500Y-194750
X182500Y-229750
X182500Y-264750
X182500Y-299750
X191250Y-46000
X191250Y-63500
X191250Y-81000
X191250Y-98500
X191250Y-116000
X191250Y-133500
X191250Y-151000
X191250Y-168500
X191250Y-186000
X191250Y-203500
X191250Y-221000
X191250Y-238500
X191250Y-256000
X191250Y-273500
X191250Y-291000
X191250Y-308500
X200000Y-54750
X200000Y-89750
X200000Y-124750
X200000Y-159750
X200000Y-194750
X200000Y-229750
X200000Y-264750
X200000Y-299750
X217500Y-54750
X217500Y-89750
X217500Y-124750
X217500Y-159750
X217500Y-194750
X217500Y-229750
X217500Y-264750
X217500Y-299750
X226250Y-46000
X226250Y-63500
X226250Y-81000
X226250Y-98500
X226250Y-116000
X226250Y-133500
X226250Y-151000
X226250Y-168500
X226250Y-186000
X226250Y-203750
X226250Y-221000
X226250Y-238500
X226250Y-256000
X226250Y-273500
X226250Y-291000
X226250Y-308500
X235000Y-54750
X235000Y-89750
X235000Y-124750
X235000Y-159750
X235000Y-194750
X235000Y-229750
X235000Y-264750
X235000Y-299750
X252500Y-54750
X252500Y-89750
X252500Y-124750
X252500Y-159750
X252500Y-194750
X252500Y-229750
X252500Y-264750
X252500Y-299750
X261250Y-46000
X261250Y-63500
X261250Y-81000
X261250Y-98500
X261250Y-116000
X261250Y-133500
X261250Y-151000
X261250Y-168500
X261250Y-186000
X261250Y-203500
X261250Y-221000
X261250Y-238500
X261250Y-256000
X261250Y-273500
X261250Y-291000
X261250Y-308500
X270000Y-54750
X270000Y-89750
X270000Y-124750
X270000Y-159750
X270000Y-194750
X270000Y-229750
X270000Y-264750
X270000Y-299750
X287500Y-54750
X287500Y-89750
X287500Y-124750
X287500Y-159750
X287500Y-194750
X287500Y-264750
X287500Y-299750
X287750Y-229750
X296250Y-46000
X296250Y-63500
X296250Y-81000
X296250Y-98500
X296250Y-116000
X296250Y-133500
X296250Y-151000
X296250Y-168500
X296250Y-186000
X296250Y-203500
X296250Y-221000
X296250Y-238500
X296250Y-256000
X296250Y-273500
X296250Y-291000
X296250Y-308500
X305000Y-54750
X305000Y-89750
X305000Y-124750
X305000Y-159750
X305000Y-194750
X305000Y-229750
X305000Y-264750
X305000Y-299750
T6
X34290Y-38090
X69290Y-38090
X104290Y-38090
X139040Y-38090
X174040Y-38090
X208290Y-38090
X244040Y-38090
X278790Y-38090
T0
M30
