M48
;DRILL file {KiCad 4.0.7} date 2017 November 23, Thursday 22:35:45
;FORMAT={-:-/ absolute / inch / decimal}
FMAT,2
INCH,TZ
T1C0.016
T2C0.031
T3C0.039
T4C0.047
T5C0.047
%
G90
G05
M72
T1
X1.4287Y-1.583
X1.5316Y-1.4567
X1.56Y-1.4032
X1.6293Y-1.3938
X2.0266Y-5.8551
X2.0692Y-11.9062
X2.0996Y-8.2744
X2.1028Y-6.4184
X2.1752Y-5.5733
X2.2398Y-2.616
X2.4732Y-2.6242
X2.501Y-6.7646
X2.5206Y-5.7064
X2.523Y-8.7238
X2.6469Y-8.7661
X2.8042Y-8.8677
X2.8398Y-10.6537
X2.971Y-8.7037
X2.988Y-10.8161
X3.0412Y-8.7573
X3.0585Y-8.7966
X3.1573Y-8.7021
X3.1642Y-8.8265
X3.2082Y-5.6779
X3.2265Y-3.6812
X3.2319Y-8.6885
X3.2349Y-8.0357
X3.2697Y-5.8485
X3.3085Y-8.0822
X3.3118Y-3.4735
X3.3186Y-8.9031
X3.3247Y-4.9719
X3.3281Y-10.7467
X3.329Y-6.2292
X3.335Y-5.7821
X3.3385Y-8.0557
X3.3424Y-2.6213
X3.3449Y-10.4284
X3.346Y-8.9207
X3.7627Y-12.236
X3.8637Y-12.2182
X4.2685Y-2.5281
X4.7076Y-2.7668
X4.7225Y-4.8513
X4.7522Y-3.1132
X4.8231Y-2.9598
X5.3415Y-2.0939
X5.5232Y-2.0583
X6.0723Y-2.7362
X6.1085Y-5.9986
X6.125Y-4.6369
X6.1449Y-7.2042
X6.1528Y-7.2458
X6.1543Y-5.8586
X6.1577Y-7.3949
X6.164Y-6.0584
X6.167Y-4.6783
X6.1729Y-7.4486
X6.188Y-4.5065
X6.2009Y-6.4486
X6.2009Y-9.2673
X6.2011Y-9.1166
X6.2011Y-8.907
X6.2013Y-3.6813
X6.2013Y-6.5122
X6.2014Y-2.9881
X6.2015Y-4.4081
X6.2015Y-3.5058
X6.2017Y-3.6418
X6.2021Y-6.412
X6.2023Y-6.569
X6.2038Y-9.234
X6.2044Y-3.4557
X6.2092Y-3.4056
X6.2102Y-9.0239
X6.2137Y-11.2956
X6.2149Y-6.0058
X6.2205Y-6.4868
X6.2222Y-7.924
X6.2296Y-8.9429
X6.2297Y-4.6858
X6.2347Y-7.6208
X6.2353Y-8.1078
X6.2362Y-8.0751
X6.2376Y-7.7884
X6.238Y-4.7288
X6.2409Y-4.0625
X6.242Y-3.3359
X6.2455Y-9.1246
X6.2466Y-9.2364
X6.2475Y-6.1828
X6.2513Y-8.0386
X6.2525Y-7.9498
X6.2533Y-6.3833
X6.2538Y-11.4697
X6.255Y-9.1773
X6.2583Y-3.4427
X6.2593Y-3.6284
X6.2596Y-11.5143
X6.2616Y-9.0698
X6.265Y-6.0103
X6.2724Y-5.9222
X6.2736Y-7.5798
X6.2847Y-12.2359
X6.3222Y-5.8821
X6.3555Y-3.3396
X6.3716Y-5.8661
X6.382Y-8.6872
X6.3903Y-3.3629
X6.4245Y-3.4027
X6.4569Y-5.8596
X6.4734Y-3.4632
X6.486Y-8.6934
X6.4983Y-7.3457
X6.5006Y-2.5349
X6.5187Y-7.8189
X6.5261Y-5.8616
X6.5904Y-3.2275
X6.7334Y-3.3169
X6.7618Y-3.2757
X6.8425Y-11.7739
X6.8502Y-7.3457
X6.8747Y-5.9218
X6.8795Y-3.3288
X6.8868Y-7.5775
X6.8899Y-11.8054
X6.8976Y-9.0099
X6.9221Y-11.9305
X6.953Y-1.5896
X6.9721Y-4.6858
X6.9888Y-5.8502
X6.989Y-3.307
X7.0602Y-5.8089
X7.1289Y-7.4936
X7.1521Y-11.3494
X7.2403Y-5.8369
X7.2842Y-9.0899
X7.29Y-5.8379
X7.3026Y-8.6377
X7.3233Y-7.4462
X7.3276Y-6.3842
X7.3441Y-6.4486
X7.3577Y-7.463
X7.3916Y-9.0301
X7.4115Y-6.4312
X7.4251Y-4.4375
X7.4392Y-3.9985
X7.4392Y-6.2631
X7.4392Y-7.4127
X7.441Y-5.9585
X7.4435Y-6.4688
X7.4572Y-8.9716
X7.4573Y-3.3575
X7.4704Y-9.0948
X7.4752Y-6.4489
X7.4781Y-9.2673
X7.4799Y-6.5159
X7.483Y-6.0212
X7.4853Y-4.4506
X7.5271Y-4.6564
X7.5789Y-2.9029
X7.5797Y-12.08
X7.5802Y-7.7957
X7.6001Y-2.7472
X7.6403Y-2.7417
X8.1286Y-1.6062
X8.3945Y-1.7014
X8.827Y-3.8405
X8.8582Y-3.6209
X8.9578Y-2.7477
X8.9835Y-2.9249
X9.0112Y-2.9841
X9.0426Y-2.8864
X9.0661Y-2.9626
X9.3107Y-11.8531
X9.3362Y-12.2537
X9.4085Y-12.2537
X9.5259Y-2.3043
X9.6379Y-2.0502
X9.6556Y-2.1091
X9.987Y-3.1955
X10.1564Y-3.0307
X10.228Y-4.5208
X10.2341Y-2.976
X10.2345Y-2.6313
X10.2346Y-3.3682
X10.2727Y-11.3827
X10.2809Y-5.8616
X10.2889Y-4.6564
X10.3347Y-8.115
X10.3348Y-6.5414
X10.3353Y-2.7666
X10.3357Y-2.8862
X10.3357Y-7.8515
X10.3358Y-7.5964
X10.3359Y-7.8094
X10.3361Y-10.5413
X10.3361Y-4.9452
X10.3363Y-3.7903
X10.3379Y-8.2105
X10.3387Y-9.2002
X10.3393Y-2.8304
X10.34Y-3.8265
X10.3401Y-3.0211
X10.3423Y-7.7215
X10.3451Y-5.3171
X10.3457Y-5.3525
X10.3493Y-7.6588
X10.3506Y-5.3905
X10.3509Y-4.6551
X10.3543Y-10.1879
X10.3557Y-5.2679
X10.3572Y-8.7005
X10.3586Y-6.2907
X10.3663Y-2.7816
X10.3689Y-8.0987
X10.371Y-7.9172
X10.375Y-6.0782
X10.3753Y-6.1779
X10.3794Y-7.7989
X10.3836Y-5.3945
X10.3862Y-6.4205
X10.3889Y-9.166
X10.3916Y-2.8319
X10.3997Y-7.7516
X10.4014Y-4.9815
X10.4046Y-9.1301
X10.4055Y-4.5825
X10.4092Y-9.0971
X10.4181Y-11.0408
X10.423Y-7.9008
X10.4258Y-6.2655
X10.4264Y-7.3228
X10.4265Y-2.8996
X10.4282Y-2.8149
X10.442Y-7.6889
X10.442Y-7.8752
X10.4421Y-3.7769
X10.4594Y-11.0653
X10.4775Y-5.021
X10.4902Y-4.5728
X10.494Y-2.4361
X10.4983Y-2.7699
X10.5173Y-5.9424
X10.521Y-5.9029
X10.5695Y-2.8014
X10.5791Y-8.8514
X10.5851Y-6.037
X10.5895Y-5.9853
X10.5964Y-3.0541
X10.6132Y-11.0186
X10.6543Y-8.7331
X10.6579Y-8.7709
X10.6793Y-11.0289
X10.7044Y-11.3002
X10.7369Y-7.8256
X10.7712Y-7.8001
X10.8247Y-4.952
X10.8505Y-7.8398
X10.8692Y-4.9877
X10.8915Y-7.8542
X10.9668Y-2.9289
X11.0916Y-7.8381
X11.1054Y-10.156
X11.2087Y-3.2756
X11.51Y-1.2351
X11.5216Y-2.8764
X11.528Y-4.5314
X11.549Y-2.9043
X11.5536Y-8.0512
X11.5556Y-3.1757
X11.562Y-6.4184
X11.5818Y-2.9251
X11.5851Y-10.1639
X11.5868Y-3.7903
X11.597Y-3.1533
X11.5978Y-12.3687
X11.6076Y-3.0792
X11.6125Y-3.8265
X11.6139Y-9.1301
X11.625Y-1.4251
X11.7092Y-3.2495
X11.7796Y-3.0875
X12.151Y-1.2111
T2
X1.25Y-2.4508
X1.4469Y-2.4508
X1.7736Y-1.565
X2.1457Y-10.9402
X2.1457Y-11.2402
X2.1555Y-2.702
X2.1555Y-3.002
X2.1555Y-8.2138
X2.1555Y-8.5138
X2.1575Y-3.189
X2.1752Y-5.4677
X2.1752Y-5.7677
X2.2441Y-10.7776
X2.2457Y-10.9402
X2.2457Y-11.2402
X2.2555Y-2.702
X2.2555Y-3.002
X2.2555Y-8.2138
X2.2555Y-8.5138
X2.2638Y-8.0413
X2.2736Y-1.565
X2.2736Y-5.2953
X2.2752Y-5.4677
X2.2752Y-5.7677
X2.3457Y-10.9402
X2.3457Y-11.2402
X2.3555Y-2.702
X2.3555Y-3.002
X2.3555Y-8.2138
X2.3555Y-8.5138
X2.3752Y-5.4677
X2.3752Y-5.7677
X2.4457Y-10.9402
X2.4457Y-11.2402
X2.4555Y-2.702
X2.4555Y-3.002
X2.4555Y-8.2138
X2.4555Y-8.5138
X2.4752Y-5.4677
X2.4752Y-5.7677
X2.5457Y-10.9402
X2.5457Y-11.2402
X2.5555Y-2.702
X2.5555Y-3.002
X2.5555Y-8.2138
X2.5555Y-8.5138
X2.5752Y-5.4677
X2.5752Y-5.7677
X2.628Y-2.4213
X2.6457Y-10.9402
X2.6457Y-11.2402
X2.6555Y-2.702
X2.6555Y-3.002
X2.6555Y-8.2138
X2.6555Y-8.5138
X2.6575Y-3.189
X2.6752Y-5.4677
X2.6752Y-5.7677
X2.7441Y-10.7776
X2.7457Y-10.9402
X2.7457Y-11.2402
X2.7555Y-2.702
X2.7555Y-3.002
X2.7555Y-8.2138
X2.7555Y-8.5138
X2.7638Y-8.0413
X2.7736Y-5.2953
X2.7752Y-5.4677
X2.7752Y-5.7677
X2.8248Y-2.4213
X2.8457Y-10.9402
X2.8457Y-11.2402
X2.8555Y-2.702
X2.8555Y-3.002
X2.8555Y-8.2138
X2.8555Y-8.5138
X2.8752Y-5.4677
X2.8752Y-5.7677
X2.9457Y-10.9402
X2.9457Y-11.2402
X2.9555Y-2.702
X2.9555Y-3.002
X2.9555Y-8.2138
X2.9555Y-8.5138
X2.9752Y-5.4677
X2.9752Y-5.7677
X3.0457Y-10.9402
X3.0457Y-11.2402
X3.0555Y-2.702
X3.0555Y-3.002
X3.0555Y-8.2138
X3.0555Y-8.5138
X3.0752Y-5.4677
X3.0752Y-5.7677
X3.1457Y-10.9402
X3.1457Y-11.2402
X3.1516Y-1.5748
X3.1555Y-2.702
X3.1555Y-3.002
X3.1555Y-8.2138
X3.1555Y-8.5138
X3.1752Y-5.4677
X3.1752Y-5.7677
X3.2457Y-10.9402
X3.2457Y-11.2402
X3.2555Y-2.702
X3.2555Y-3.002
X3.2555Y-8.2138
X3.2555Y-8.5138
X3.2752Y-5.4677
X3.2752Y-5.7677
X3.6516Y-1.5748
X4.0059Y-2.4508
X4.2028Y-2.4508
X4.5197Y-1.5748
X5.0197Y-1.5748
X5.3839Y-2.4508
X5.5807Y-2.4508
X5.8976Y-1.5748
X6.2894Y-5.4382
X6.2894Y-5.7382
X6.2894Y-8.2039
X6.2894Y-8.5039
X6.2992Y-10.9697
X6.2992Y-11.2697
X6.3189Y-2.7118
X6.3189Y-3.0118
X6.3209Y-3.189
X6.3878Y-5.2657
X6.3894Y-5.4382
X6.3894Y-5.7382
X6.3894Y-8.2039
X6.3894Y-8.5039
X6.3976Y-1.5748
X6.3976Y-8.0217
X6.3976Y-10.7874
X6.3992Y-10.9697
X6.3992Y-11.2697
X6.4189Y-2.7118
X6.4189Y-3.0118
X6.4894Y-5.4382
X6.4894Y-5.7382
X6.4894Y-8.2039
X6.4894Y-8.5039
X6.4992Y-10.9697
X6.4992Y-11.2697
X6.5189Y-2.7118
X6.5189Y-3.0118
X6.5894Y-5.4382
X6.5894Y-5.7382
X6.5894Y-8.2039
X6.5894Y-8.5039
X6.5992Y-10.9697
X6.5992Y-11.2697
X6.6189Y-2.7118
X6.6189Y-3.0118
X6.6894Y-5.4382
X6.6894Y-5.7382
X6.6894Y-8.2039
X6.6894Y-8.5039
X6.6992Y-10.9697
X6.6992Y-11.2697
X6.7189Y-2.7118
X6.7189Y-3.0118
X6.7618Y-2.4213
X6.7894Y-5.4382
X6.7894Y-5.7382
X6.7894Y-8.2039
X6.7894Y-8.5039
X6.7992Y-10.9697
X6.7992Y-11.2697
X6.8189Y-2.7118
X6.8189Y-3.0118
X6.8209Y-3.189
X6.8878Y-5.2657
X6.8894Y-5.4382
X6.8894Y-5.7382
X6.8894Y-8.2039
X6.8894Y-8.5039
X6.8976Y-8.0217
X6.8976Y-10.7874
X6.8992Y-10.9697
X6.8992Y-11.2697
X6.9189Y-2.7118
X6.9189Y-3.0118
X6.9587Y-2.4213
X6.9894Y-5.4382
X6.9894Y-5.7382
X6.9894Y-8.2039
X6.9894Y-8.5039
X6.9992Y-10.9697
X6.9992Y-11.2697
X7.0189Y-2.7118
X7.0189Y-3.0118
X7.0894Y-5.4382
X7.0894Y-5.7382
X7.0894Y-8.2039
X7.0894Y-8.5039
X7.0992Y-10.9697
X7.0992Y-11.2697
X7.1189Y-2.7118
X7.1189Y-3.0118
X7.1894Y-5.4382
X7.1894Y-5.7382
X7.1894Y-8.2039
X7.1894Y-8.5039
X7.1992Y-10.9697
X7.1992Y-11.2697
X7.2189Y-2.7118
X7.2189Y-3.0118
X7.2854Y-1.5748
X7.2894Y-5.4382
X7.2894Y-5.7382
X7.2894Y-8.2039
X7.2894Y-8.5039
X7.2992Y-10.9697
X7.2992Y-11.2697
X7.3189Y-2.7118
X7.3189Y-3.0118
X7.3894Y-5.4382
X7.3894Y-5.7382
X7.3894Y-8.2039
X7.3894Y-8.5039
X7.3992Y-10.9697
X7.3992Y-11.2697
X7.4189Y-2.7118
X7.4189Y-3.0118
X7.7854Y-1.5748
X8.1102Y-2.4213
X8.3071Y-2.4213
X8.6535Y-1.5748
X9.1535Y-1.5748
X9.252Y-2.7118
X9.252Y-3.0118
X9.352Y-2.7118
X9.352Y-3.0118
X9.452Y-2.7118
X9.452Y-3.0118
X9.5079Y-2.4114
X9.552Y-2.7118
X9.552Y-3.0118
X9.652Y-2.7118
X9.652Y-3.0118
X9.7047Y-2.4114
X9.752Y-2.7118
X9.752Y-3.0118
X9.852Y-2.7118
X9.852Y-3.0118
X9.952Y-2.7118
X9.952Y-3.0118
X10.0512Y-1.5748
X10.4331Y-5.448
X10.4331Y-5.748
X10.4331Y-8.2138
X10.4331Y-8.5138
X10.4331Y-10.9402
X10.4331Y-11.2402
X10.4429Y-2.702
X10.4429Y-3.002
X10.4449Y-3.189
X10.5118Y-8.0217
X10.5315Y-5.2657
X10.5315Y-10.7579
X10.5331Y-5.448
X10.5331Y-5.748
X10.5331Y-8.2138
X10.5331Y-8.5138
X10.5331Y-10.9402
X10.5331Y-11.2402
X10.5429Y-2.702
X10.5429Y-3.002
X10.5512Y-1.5748
X10.6331Y-5.448
X10.6331Y-5.748
X10.6331Y-8.2138
X10.6331Y-8.5138
X10.6331Y-10.9402
X10.6331Y-11.2402
X10.6429Y-2.702
X10.6429Y-3.002
X10.7331Y-5.448
X10.7331Y-5.748
X10.7331Y-8.2138
X10.7331Y-8.5138
X10.7331Y-10.9402
X10.7331Y-11.2402
X10.7429Y-2.702
X10.7429Y-3.002
X10.8331Y-5.448
X10.8331Y-5.748
X10.8331Y-8.2138
X10.8331Y-8.5138
X10.8331Y-10.9402
X10.8331Y-11.2402
X10.8429Y-2.702
X10.8429Y-3.002
X10.876Y-2.4311
X10.9331Y-5.448
X10.9331Y-5.748
X10.9331Y-8.2138
X10.9331Y-8.5138
X10.9331Y-10.9402
X10.9331Y-11.2402
X10.9429Y-2.702
X10.9429Y-3.002
X10.9449Y-3.189
X11.0118Y-8.0217
X11.0315Y-5.2657
X11.0315Y-10.7579
X11.0331Y-5.448
X11.0331Y-5.748
X11.0331Y-8.2138
X11.0331Y-8.5138
X11.0331Y-10.9402
X11.0331Y-11.2402
X11.0429Y-2.702
X11.0429Y-3.002
X11.0728Y-2.4311
X11.1331Y-5.448
X11.1331Y-5.748
X11.1331Y-8.2138
X11.1331Y-8.5138
X11.1331Y-10.9402
X11.1331Y-11.2402
X11.1429Y-2.702
X11.1429Y-3.002
X11.2331Y-5.448
X11.2331Y-5.748
X11.2331Y-8.2138
X11.2331Y-8.5138
X11.2331Y-10.9402
X11.2331Y-11.2402
X11.2429Y-2.702
X11.2429Y-3.002
X11.3331Y-5.448
X11.3331Y-5.748
X11.3331Y-8.2138
X11.3331Y-8.5138
X11.3331Y-10.9402
X11.3331Y-11.2402
X11.3429Y-2.702
X11.3429Y-3.002
X11.4094Y-1.5748
X11.4331Y-5.448
X11.4331Y-5.748
X11.4331Y-8.2138
X11.4331Y-8.5138
X11.4331Y-10.9402
X11.4331Y-11.2402
X11.4429Y-2.702
X11.4429Y-3.002
X11.5331Y-5.448
X11.5331Y-5.748
X11.5331Y-8.2138
X11.5331Y-8.5138
X11.5331Y-10.9402
X11.5331Y-11.2402
X11.5429Y-2.702
X11.5429Y-3.002
X11.9094Y-1.5748
T3
X1.25Y-2.1555
X1.35Y-2.1555
X1.45Y-2.1555
X2.628Y-2.1555
X2.728Y-2.1555
X2.828Y-2.1555
X4.0059Y-2.1555
X4.1059Y-2.1555
X4.2059Y-2.1555
X5.374Y-2.1555
X5.474Y-2.1555
X5.574Y-2.1555
X6.752Y-2.1555
X6.852Y-2.1555
X6.952Y-2.1555
X8.1004Y-2.1555
X8.2004Y-2.1555
X8.3004Y-2.1555
X9.5079Y-2.1555
X9.6079Y-2.1555
X9.7079Y-2.1555
X10.876Y-2.1555
X10.976Y-2.1555
X11.076Y-2.1555
X12.2835Y-2.3972
X12.2835Y-2.4972
X12.2835Y-2.5972
X12.2835Y-2.6972
X12.2835Y-2.7972
X12.2835Y-2.8972
X12.2835Y-2.9972
X12.2835Y-3.0972
X12.2835Y-3.1972
X12.2835Y-3.2972
T4
X12.2835Y-1.9488
X12.2835Y-2.0866
T5
X1.6732Y-2.1555
X1.6732Y-4.9114
X1.6732Y-6.2894
X1.6732Y-7.6673
X1.6732Y-9.0453
X1.6732Y-10.4232
X1.6732Y-11.8012
X1.6831Y-3.5335
X2.0177Y-1.811
X2.0177Y-2.5
X2.0177Y-3.189
X2.0177Y-3.878
X2.0177Y-4.5669
X2.0177Y-5.2559
X2.0177Y-5.9449
X2.0177Y-6.6339
X2.0177Y-7.3228
X2.0177Y-8.0118
X2.0177Y-8.7008
X2.0177Y-9.3898
X2.0177Y-10.0787
X2.0177Y-10.7677
X2.0177Y-11.4567
X2.0177Y-12.1457
X2.3622Y-2.1555
X2.3622Y-3.5335
X2.3622Y-4.9114
X2.3622Y-6.2894
X2.3622Y-7.6673
X2.3622Y-9.0453
X2.3622Y-10.4232
X2.3622Y-11.8012
X3.0512Y-2.1555
X3.0512Y-3.5335
X3.0512Y-4.9114
X3.0512Y-6.2894
X3.0512Y-7.6673
X3.0512Y-9.0453
X3.0512Y-10.4232
X3.0512Y-11.8012
X3.3957Y-1.811
X3.3957Y-2.5
X3.3957Y-3.189
X3.3957Y-3.878
X3.3957Y-4.5669
X3.3957Y-5.2559
X3.3957Y-5.9449
X3.3957Y-6.6339
X3.3957Y-7.3228
X3.3957Y-8.0118
X3.3957Y-8.7008
X3.3957Y-9.3898
X3.3957Y-10.0787
X3.3957Y-10.7677
X3.3957Y-11.4567
X3.3957Y-12.1457
X3.7402Y-2.1555
X3.7402Y-3.5335
X3.7402Y-4.9114
X3.7402Y-6.2894
X3.7402Y-7.6673
X3.7402Y-9.0453
X3.7402Y-10.4232
X3.7402Y-11.8012
X4.4291Y-2.1555
X4.4291Y-3.5335
X4.4291Y-4.9114
X4.4291Y-6.2894
X4.4291Y-7.6673
X4.4291Y-9.0453
X4.4291Y-10.4232
X4.4291Y-11.8012
X4.7736Y-1.811
X4.7736Y-2.5
X4.7736Y-3.189
X4.7736Y-3.8878
X4.7736Y-4.5669
X4.7736Y-5.2559
X4.7736Y-5.9449
X4.7736Y-6.6339
X4.7736Y-7.3228
X4.7736Y-8.0118
X4.7736Y-8.7008
X4.7736Y-9.3898
X4.7736Y-10.0787
X4.7736Y-10.7677
X4.7736Y-11.4567
X4.7736Y-12.1457
X5.1181Y-2.1555
X5.1181Y-3.5335
X5.1181Y-4.9114
X5.1181Y-6.2894
X5.1181Y-7.6673
X5.1181Y-9.0453
X5.1181Y-10.4232
X5.1181Y-11.8012
X5.8071Y-2.1555
X5.8071Y-3.5335
X5.8071Y-4.9114
X5.8071Y-6.2894
X5.8071Y-7.6673
X5.8071Y-9.0453
X5.8071Y-10.4232
X5.8071Y-11.8012
X6.1516Y-1.811
X6.1516Y-2.5
X6.1516Y-3.189
X6.1516Y-3.878
X6.1516Y-4.5669
X6.1516Y-5.2559
X6.1516Y-5.9449
X6.1516Y-6.6339
X6.1516Y-7.3228
X6.1516Y-8.0118
X6.1516Y-8.7008
X6.1516Y-9.3898
X6.1516Y-10.0787
X6.1516Y-10.7677
X6.1516Y-11.4567
X6.1516Y-12.1457
X6.4961Y-2.1555
X6.4961Y-3.5335
X6.4961Y-4.9114
X6.4961Y-6.2894
X6.4961Y-7.6673
X6.4961Y-9.0453
X6.4961Y-10.4232
X6.4961Y-11.8012
X7.185Y-2.1555
X7.185Y-3.5335
X7.185Y-4.9114
X7.185Y-6.2894
X7.185Y-7.6673
X7.185Y-9.0453
X7.185Y-10.4232
X7.185Y-11.8012
X7.5295Y-1.811
X7.5295Y-2.5
X7.5295Y-3.189
X7.5295Y-3.878
X7.5295Y-4.5669
X7.5295Y-5.2559
X7.5295Y-5.9449
X7.5295Y-6.6339
X7.5295Y-7.3228
X7.5295Y-8.0118
X7.5295Y-8.7008
X7.5295Y-9.3898
X7.5295Y-10.0787
X7.5295Y-10.7677
X7.5295Y-11.4567
X7.5295Y-12.1457
X7.874Y-2.1555
X7.874Y-3.5335
X7.874Y-4.9114
X7.874Y-6.2894
X7.874Y-7.6673
X7.874Y-9.0453
X7.874Y-10.4232
X7.874Y-11.8012
X8.563Y-2.1555
X8.563Y-3.5335
X8.563Y-4.9114
X8.563Y-6.2894
X8.563Y-7.6673
X8.563Y-9.0453
X8.563Y-10.4232
X8.563Y-11.8012
X8.9075Y-1.811
X8.9075Y-2.5
X8.9075Y-3.189
X8.9075Y-3.878
X8.9075Y-4.5669
X8.9075Y-5.2559
X8.9075Y-5.9449
X8.9075Y-6.6339
X8.9075Y-7.3228
X8.9075Y-8.0217
X8.9075Y-8.7008
X8.9075Y-9.3898
X8.9075Y-10.0787
X8.9075Y-10.7677
X8.9075Y-11.4567
X8.9075Y-12.1457
X9.252Y-2.1555
X9.252Y-3.5335
X9.252Y-4.9114
X9.252Y-6.2894
X9.252Y-7.6673
X9.252Y-9.0453
X9.252Y-10.4232
X9.252Y-11.8012
X9.9409Y-2.1555
X9.9409Y-3.5335
X9.9409Y-4.9114
X9.9409Y-6.2894
X9.9409Y-7.6673
X9.9409Y-9.0453
X9.9409Y-10.4232
X9.9409Y-11.8012
X10.2854Y-1.811
X10.2854Y-2.5
X10.2854Y-3.189
X10.2854Y-3.878
X10.2854Y-4.5669
X10.2854Y-5.2559
X10.2854Y-5.9449
X10.2854Y-6.6339
X10.2854Y-7.3228
X10.2854Y-8.0118
X10.2854Y-8.7008
X10.2854Y-9.3898
X10.2854Y-10.0787
X10.2854Y-10.7677
X10.2854Y-11.4567
X10.2854Y-12.1457
X10.6299Y-2.1555
X10.6299Y-3.5335
X10.6299Y-4.9114
X10.6299Y-6.2894
X10.6299Y-7.6673
X10.6299Y-9.0453
X10.6299Y-10.4232
X10.6299Y-11.8012
X11.3189Y-2.1555
X11.3189Y-3.5335
X11.3189Y-4.9114
X11.3189Y-6.2894
X11.3189Y-7.6673
X11.3189Y-10.4232
X11.3189Y-11.8012
X11.3287Y-9.0453
X11.6634Y-1.811
X11.6634Y-2.5
X11.6634Y-3.189
X11.6634Y-3.878
X11.6634Y-4.5669
X11.6634Y-5.2559
X11.6634Y-5.9449
X11.6634Y-6.6339
X11.6634Y-7.3228
X11.6634Y-8.0118
X11.6634Y-8.7008
X11.6634Y-9.3898
X11.6634Y-10.0787
X11.6634Y-10.7677
X11.6634Y-11.4567
X11.6634Y-12.1457
X12.0079Y-2.1555
X12.0079Y-3.5335
X12.0079Y-4.9114
X12.0079Y-6.2894
X12.0079Y-7.6673
X12.0079Y-9.0453
X12.0079Y-10.4232
X12.0079Y-11.8012
T0
M30
