M48
;DRILL file {Pcbnew (2013-mar-25)-stable} date woensdag 08 mei 2013 22:44:15
;FORMAT={-:-/ absolute / inch / decimal}
FMAT,2
INCH,TZ
T1C0.025
T2C0.028
T3C0.032
T4C0.040
T5C0.060
T6C0.120
%
G90
G05
M72
T1
X1.541Y-7.2296
X1.5536Y-2.61
X1.6246Y-6.8886
X2.3589Y-7.2026
X2.3613Y-6.6272
X2.4145Y-6.5938
X2.4325Y-6.4362
X2.4859Y-6.0343
X2.5162Y-5.919
X2.5341Y-6.1516
X2.5591Y-0.5512
X2.5805Y-8.6764
X2.6097Y-1.9415
X2.6127Y-6.5585
X2.6527Y-1.9648
X2.8156Y-5.6226
X2.8827Y-6.4943
X2.8837Y-7.2849
X2.8972Y-8.9073
X3.1358Y-7.1257
X3.2283Y-0.7087
X3.2467Y-9.757
X3.2998Y-4.9852
X3.5039Y-0.9843
X3.5567Y-4.2875
X3.7849Y-1.631
X3.8004Y-3.7268
X3.8382Y-10.3655
X4.0393Y-10.1781
X4.0764Y-7.2433
X4.183Y-9.6299
X4.2051Y-5.0859
X4.2335Y-5.7531
X4.5682Y-1.887
X4.6635Y-4.6885
X4.6647Y-4.7335
X4.7097Y-4.6996
X4.7098Y-4.7446
X4.8466Y-4.2731
X4.849Y-6.1802
X4.8558Y-5.2936
X4.8603Y-4.5072
X4.9502Y-4.5235
X4.9604Y-3.9933
X5.0885Y-6.5284
X5.1398Y-7.8557
X5.1431Y-2.2257
X5.2363Y-7.773
X5.2419Y-7.9703
X5.2646Y-8.0112
X5.348Y-8.5891
X5.5486Y-2.253
X5.6072Y-5.2928
X5.6166Y-7.0459
X5.7278Y-5.2214
X5.83Y-5.2391
X5.8689Y-2.2167
X5.907Y-5.2741
X5.9695Y-7.1448
X5.9969Y-4.7209
X6.1673Y-4.1399
X6.2313Y-5.124
X6.2581Y-4.613
X6.2887Y-5.6554
X6.4851Y-5.8716
X6.5898Y-0.9927
X6.618Y-5.9089
X6.6658Y-5.8859
X6.7921Y-6.2135
X6.8095Y-8.5628
X6.9111Y-6.3519
X6.9284Y-6.475
X6.9689Y-6.4991
X7.0394Y-4.665
X7.0406Y-6.4272
X7.044Y-6.3204
X7.0567Y-4.6167
X7.0644Y-6.7131
X7.0756Y-6.6491
X7.1206Y-6.6487
X7.2091Y-6.6487
X7.3498Y-6.4501
X7.6716Y-7.3699
X8.3462Y-8.286
X8.4119Y-6.3846
X8.5038Y-8.4106
X8.9146Y-6.2181
X8.9596Y-6.2006
X9.1352Y-4.9177
T2
X0.5905Y-0.9449
X0.5906Y-3.7008
X0.5906Y-5.0787
X0.5906Y-6.4567
X0.5906Y-7.8346
X0.5906Y-9.2126
X0.5906Y-10.5906
X0.5906Y-2.3229
X0.9448Y-0.5906
X0.9448Y-1.2993
X0.9449Y-3.3465
X0.9449Y-4.0551
X0.9449Y-4.7244
X0.9449Y-5.4331
X0.9449Y-6.1024
X0.9449Y-6.811
X0.9449Y-7.4803
X0.9449Y-8.189
X0.9449Y-8.8583
X0.9449Y-9.5669
X0.9449Y-10.2362
X0.9449Y-10.9449
X0.9449Y-1.9686
X0.9449Y-2.6772
X1.2992Y-0.9449
X1.2992Y-2.3229
X1.2992Y-3.7008
X1.2992Y-5.0787
X1.2992Y-6.4567
X1.2992Y-7.8346
X1.2992Y-9.2126
X1.2992Y-10.5906
X1.9685Y-0.9449
X1.9685Y-2.3228
X1.9685Y-3.7008
X1.9685Y-5.0787
X1.9685Y-6.4567
X1.9685Y-7.8346
X1.9685Y-9.2126
X1.9685Y-10.5906
X2.3228Y-0.5906
X2.3228Y-1.2993
X2.3228Y-1.9685
X2.3228Y-2.6772
X2.3228Y-3.3465
X2.3228Y-4.0551
X2.3228Y-4.7244
X2.3228Y-5.4331
X2.3228Y-6.1024
X2.3228Y-6.811
X2.3228Y-7.4803
X2.3228Y-8.189
X2.3228Y-8.8583
X2.3228Y-9.5669
X2.3228Y-10.2362
X2.3228Y-10.9449
X2.6772Y-3.7008
X2.6772Y-5.0787
X2.6772Y-6.4567
X2.6772Y-7.8346
X2.6772Y-9.2126
X2.6772Y-10.5906
X2.6772Y-0.9449
X2.6772Y-2.3228
X3.3464Y-0.9449
X3.3465Y-3.7008
X3.3465Y-5.0787
X3.3465Y-6.4567
X3.3465Y-7.8346
X3.3465Y-9.2126
X3.3465Y-10.5906
X3.3465Y-2.3228
X3.7008Y-3.3465
X3.7008Y-4.0551
X3.7008Y-4.7244
X3.7008Y-5.4331
X3.7008Y-6.1024
X3.7008Y-6.811
X3.7008Y-7.4803
X3.7008Y-8.189
X3.7008Y-8.8583
X3.7008Y-9.5669
X3.7008Y-10.2362
X3.7008Y-10.9449
X3.7008Y-0.5906
X3.7008Y-1.2993
X3.7008Y-1.9685
X3.7008Y-2.6772
X4.0551Y-0.9449
X4.0551Y-2.3228
X4.0551Y-3.7008
X4.0551Y-5.0787
X4.0551Y-6.4567
X4.0551Y-7.8346
X4.0551Y-9.2126
X4.0551Y-10.5906
X4.7244Y-0.9449
X4.7244Y-2.3228
X4.7244Y-3.7008
X4.7244Y-5.0787
X4.7244Y-6.4567
X4.7244Y-7.8346
X4.7244Y-9.2126
X4.7244Y-10.5906
X5.0787Y-1.2993
X5.0787Y-1.9685
X5.0787Y-2.6772
X5.0787Y-0.5906
X5.0787Y-3.3465
X5.0787Y-4.0551
X5.0787Y-4.7244
X5.0787Y-5.4331
X5.0787Y-6.1024
X5.0787Y-6.811
X5.0787Y-7.4803
X5.0787Y-8.189
X5.0787Y-8.8583
X5.0787Y-9.5669
X5.0787Y-10.2362
X5.0787Y-10.9449
X5.4331Y-3.7008
X5.4331Y-5.0787
X5.4331Y-6.4567
X5.4331Y-7.8346
X5.4331Y-9.2126
X5.4331Y-10.5906
X5.4331Y-0.9449
X5.4331Y-2.3228
X6.1023Y-0.9449
X6.1024Y-3.7008
X6.1024Y-5.0787
X6.1024Y-6.4567
X6.1024Y-7.8346
X6.1024Y-9.2126
X6.1024Y-10.5906
X6.1024Y-2.3228
X6.4567Y-0.5906
X6.4567Y-1.2993
X6.4567Y-1.9685
X6.4567Y-2.6772
X6.4567Y-3.3465
X6.4567Y-4.0551
X6.4567Y-4.7244
X6.4567Y-5.4331
X6.4567Y-6.1024
X6.4567Y-6.811
X6.4567Y-7.4803
X6.4567Y-8.189
X6.4567Y-8.8583
X6.4567Y-9.5669
X6.4567Y-10.2362
X6.4567Y-10.9449
X6.811Y-0.9449
X6.811Y-2.3228
X6.811Y-3.7008
X6.811Y-5.0787
X6.811Y-6.4567
X6.811Y-7.8346
X6.811Y-9.2126
X6.811Y-10.5906
X7.4803Y-0.9449
X7.4803Y-2.3228
X7.4803Y-3.7008
X7.4803Y-5.0787
X7.4803Y-6.4567
X7.4803Y-7.8346
X7.4803Y-9.2126
X7.4803Y-10.5906
X7.8346Y-1.2993
X7.8346Y-1.9685
X7.8346Y-2.6772
X7.8346Y-0.5906
X7.8346Y-3.3465
X7.8346Y-4.0551
X7.8346Y-4.7244
X7.8346Y-5.4331
X7.8346Y-6.1024
X7.8346Y-6.811
X7.8346Y-7.4803
X7.8346Y-8.189
X7.8346Y-8.8583
X7.8346Y-9.5669
X7.8346Y-10.2362
X7.8346Y-10.9449
X8.189Y-3.7008
X8.189Y-5.0787
X8.189Y-6.4567
X8.189Y-7.8346
X8.189Y-9.2126
X8.189Y-10.5906
X8.189Y-0.9449
X8.189Y-2.3228
X8.8582Y-0.9449
X8.8583Y-3.7008
X8.8583Y-5.0787
X8.8583Y-6.4567
X8.8583Y-7.8346
X8.8583Y-9.2126
X8.8583Y-10.5906
X8.8583Y-2.3228
X9.2126Y-0.5906
X9.2126Y-1.2993
X9.2126Y-1.9685
X9.2126Y-2.6772
X9.2126Y-3.3465
X9.2126Y-4.0551
X9.2126Y-4.7244
X9.2126Y-5.4331
X9.2126Y-6.1024
X9.2126Y-6.811
X9.2126Y-7.4803
X9.2126Y-8.189
X9.2126Y-8.8583
X9.2126Y-9.5669
X9.2126Y-10.2362
X9.2126Y-10.9449
X9.5669Y-0.9449
X9.5669Y-2.3228
X9.5669Y-3.7008
X9.5669Y-5.0787
X9.5669Y-6.4567
X9.5669Y-7.8346
X9.5669Y-9.2126
X9.5669Y-10.5906
X10.2362Y-0.9449
X10.2362Y-2.3228
X10.2362Y-3.7008
X10.2362Y-5.0787
X10.2362Y-6.4567
X10.2362Y-7.8346
X10.2362Y-9.2126
X10.2362Y-10.5906
X10.5906Y-0.5906
X10.5906Y-1.9685
X10.5906Y-3.3465
X10.5906Y-4.0551
X10.5906Y-4.7244
X10.5906Y-5.4331
X10.5906Y-6.1024
X10.5906Y-6.811
X10.5906Y-7.4803
X10.5906Y-8.189
X10.5906Y-8.8583
X10.5906Y-9.5669
X10.5906Y-10.2362
X10.5906Y-10.9449
X10.5906Y-1.2993
X10.5906Y-2.6772
X10.9449Y-0.9449
X10.9449Y-2.3228
X10.9449Y-3.7008
X10.9449Y-5.0787
X10.9449Y-6.4567
X10.9449Y-7.8346
X10.9449Y-9.2126
X10.9449Y-10.5906
T3
X0.5925Y-4.3815
X0.6032Y-1.6398
X0.6161Y-7.126
X0.6161Y-9.8819
X1.0925Y-4.3815
X1.1032Y-1.6398
X1.1161Y-7.126
X1.1161Y-9.8819
X1.2925Y-4.2315
X1.2925Y-4.5315
X1.3004Y-6.976
X1.3004Y-7.276
X1.3004Y-9.7319
X1.3004Y-10.0319
X1.3032Y-1.4898
X1.3032Y-1.7898
X1.3925Y-4.2315
X1.3925Y-4.5315
X1.4004Y-6.976
X1.4004Y-7.276
X1.4004Y-9.7319
X1.4004Y-10.0319
X1.4032Y-1.4898
X1.4032Y-1.7898
X1.4925Y-4.2315
X1.4925Y-4.5315
X1.5004Y-6.976
X1.5004Y-7.276
X1.5004Y-9.7319
X1.5004Y-10.0319
X1.5032Y-1.4898
X1.5032Y-1.7898
X1.5925Y-4.2315
X1.5925Y-4.5315
X1.6004Y-6.976
X1.6004Y-7.276
X1.6004Y-9.7319
X1.6004Y-10.0319
X1.6032Y-1.4898
X1.6032Y-1.7898
X1.6925Y-4.2315
X1.6925Y-4.5315
X1.7004Y-6.976
X1.7004Y-7.276
X1.7004Y-9.7319
X1.7004Y-10.0319
X1.7032Y-1.4898
X1.7032Y-1.7898
X1.7925Y-4.2315
X1.7925Y-4.5315
X1.8004Y-6.976
X1.8004Y-7.276
X1.8004Y-9.7319
X1.8004Y-10.0319
X1.8032Y-1.4898
X1.8032Y-1.7898
X1.8925Y-4.2315
X1.8925Y-4.5315
X1.9004Y-6.976
X1.9004Y-7.276
X1.9004Y-9.7319
X1.9004Y-10.0319
X1.9032Y-1.4898
X1.9032Y-1.7898
X1.9925Y-4.2315
X1.9925Y-4.5315
X2.0004Y-6.976
X2.0004Y-7.276
X2.0004Y-9.7319
X2.0004Y-10.0319
X2.0032Y-1.4898
X2.0032Y-1.7898
X2.0925Y-4.2315
X2.0925Y-4.5315
X2.1004Y-6.976
X2.1004Y-7.276
X2.1004Y-9.7319
X2.1004Y-10.0319
X2.1032Y-1.4898
X2.1032Y-1.7898
X2.1925Y-4.2315
X2.1925Y-4.5315
X2.2004Y-6.976
X2.2004Y-7.276
X2.2004Y-9.7319
X2.2004Y-10.0319
X2.2032Y-1.4898
X2.2032Y-1.7898
X2.2925Y-4.2315
X2.2925Y-4.5315
X2.3004Y-6.976
X2.3004Y-7.276
X2.3004Y-9.7319
X2.3004Y-10.0319
X2.3032Y-1.4898
X2.3032Y-1.7898
X2.3925Y-4.2315
X2.3925Y-4.5315
X2.4004Y-6.976
X2.4004Y-7.276
X2.4004Y-9.7319
X2.4004Y-10.0319
X2.4032Y-1.4898
X2.4032Y-1.7898
X2.7157Y-4.3921
X2.7421Y-7.126
X2.7421Y-9.8819
X2.7422Y-1.6339
X3.2157Y-4.3921
X3.2421Y-7.126
X3.2421Y-9.8819
X3.2422Y-1.6339
X3.4157Y-4.2421
X3.4157Y-4.5421
X3.4264Y-6.976
X3.4264Y-7.276
X3.4264Y-9.7319
X3.4264Y-10.0319
X3.4264Y-1.4839
X3.4264Y-1.7839
X3.5157Y-4.2421
X3.5157Y-4.5421
X3.5264Y-6.976
X3.5264Y-7.276
X3.5264Y-9.7319
X3.5264Y-10.0319
X3.5264Y-1.4839
X3.5264Y-1.7839
X3.6157Y-4.2421
X3.6157Y-4.5421
X3.6264Y-6.976
X3.6264Y-7.276
X3.6264Y-9.7319
X3.6264Y-10.0319
X3.6264Y-1.4839
X3.6264Y-1.7839
X3.7157Y-4.2421
X3.7157Y-4.5421
X3.7264Y-6.976
X3.7264Y-7.276
X3.7264Y-9.7319
X3.7264Y-10.0319
X3.7264Y-1.4839
X3.7264Y-1.7839
X3.8157Y-4.2421
X3.8157Y-4.5421
X3.8264Y-6.976
X3.8264Y-7.276
X3.8264Y-9.7319
X3.8264Y-10.0319
X3.8264Y-1.4839
X3.8264Y-1.7839
X3.9157Y-4.2421
X3.9157Y-4.5421
X3.9264Y-6.976
X3.9264Y-7.276
X3.9264Y-9.7319
X3.9264Y-10.0319
X3.9264Y-1.4839
X3.9264Y-1.7839
X4.0157Y-4.2421
X4.0157Y-4.5421
X4.0264Y-6.976
X4.0264Y-7.276
X4.0264Y-9.7319
X4.0264Y-10.0319
X4.0264Y-1.4839
X4.0264Y-1.7839
X4.1157Y-4.2421
X4.1157Y-4.5421
X4.1264Y-6.976
X4.1264Y-7.276
X4.1264Y-9.7319
X4.1264Y-10.0319
X4.1264Y-1.4839
X4.1264Y-1.7839
X4.2157Y-4.2421
X4.2157Y-4.5421
X4.2264Y-6.976
X4.2264Y-7.276
X4.2264Y-9.7319
X4.2264Y-10.0319
X4.2264Y-1.4839
X4.2264Y-1.7839
X4.3157Y-4.2421
X4.3157Y-4.5421
X4.3264Y-6.976
X4.3264Y-7.276
X4.3264Y-9.7319
X4.3264Y-10.0319
X4.3264Y-1.4839
X4.3264Y-1.7839
X4.4157Y-4.2421
X4.4157Y-4.5421
X4.4264Y-6.976
X4.4264Y-7.276
X4.4264Y-9.7319
X4.4264Y-10.0319
X4.4264Y-1.4839
X4.4264Y-1.7839
X4.5157Y-4.2421
X4.5157Y-4.5421
X4.5264Y-6.976
X4.5264Y-7.276
X4.5264Y-9.7319
X4.5264Y-10.0319
X4.5264Y-1.4839
X4.5264Y-1.7839
X4.8681Y-1.6339
X4.8681Y-7.126
X4.8681Y-9.8819
X4.8709Y-4.3921
X5.3681Y-1.6339
X5.3681Y-7.126
X5.3681Y-9.8819
X5.3709Y-4.3921
X5.5524Y-6.976
X5.5524Y-7.276
X5.5524Y-9.7319
X5.5524Y-10.0319
X5.5524Y-1.4839
X5.5524Y-1.7839
X5.5709Y-4.2421
X5.5709Y-4.5421
X5.6524Y-6.976
X5.6524Y-7.276
X5.6524Y-9.7319
X5.6524Y-10.0319
X5.6524Y-1.4839
X5.6524Y-1.7839
X5.6709Y-4.2421
X5.6709Y-4.5421
X5.7524Y-6.976
X5.7524Y-7.276
X5.7524Y-9.7319
X5.7524Y-10.0319
X5.7524Y-1.4839
X5.7524Y-1.7839
X5.7709Y-4.2421
X5.7709Y-4.5421
X5.8524Y-6.976
X5.8524Y-7.276
X5.8524Y-9.7319
X5.8524Y-10.0319
X5.8524Y-1.4839
X5.8524Y-1.7839
X5.8709Y-4.2421
X5.8709Y-4.5421
X5.9524Y-6.976
X5.9524Y-7.276
X5.9524Y-9.7319
X5.9524Y-10.0319
X5.9524Y-1.4839
X5.9524Y-1.7839
X5.9709Y-4.2421
X5.9709Y-4.5421
X6.0524Y-6.976
X6.0524Y-7.276
X6.0524Y-9.7319
X6.0524Y-10.0319
X6.0524Y-1.4839
X6.0524Y-1.7839
X6.0709Y-4.2421
X6.0709Y-4.5421
X6.1524Y-6.976
X6.1524Y-7.276
X6.1524Y-9.7319
X6.1524Y-10.0319
X6.1524Y-1.4839
X6.1524Y-1.7839
X6.1709Y-4.2421
X6.1709Y-4.5421
X6.2524Y-6.976
X6.2524Y-7.276
X6.2524Y-9.7319
X6.2524Y-10.0319
X6.2524Y-1.4839
X6.2524Y-1.7839
X6.2709Y-4.2421
X6.2709Y-4.5421
X6.3524Y-6.976
X6.3524Y-7.276
X6.3524Y-9.7319
X6.3524Y-10.0319
X6.3524Y-1.4839
X6.3524Y-1.7839
X6.3709Y-4.2421
X6.3709Y-4.5421
X6.4524Y-6.976
X6.4524Y-7.276
X6.4524Y-9.7319
X6.4524Y-10.0319
X6.4524Y-1.4839
X6.4524Y-1.7839
X6.4709Y-4.2421
X6.4709Y-4.5421
X6.5524Y-6.976
X6.5524Y-7.276
X6.5524Y-9.7319
X6.5524Y-10.0319
X6.5524Y-1.4839
X6.5524Y-1.7839
X6.5709Y-4.2421
X6.5709Y-4.5421
X6.6524Y-6.976
X6.6524Y-7.276
X6.6524Y-9.7319
X6.6524Y-10.0319
X6.6524Y-1.4839
X6.6524Y-1.7839
X6.6709Y-4.2421
X6.6709Y-4.5421
X7.1154Y-0.5512
X7.2154Y-0.5512
X8.1539Y-8.3539
X8.1539Y-8.6539
X8.1539Y-9.7319
X8.1539Y-10.0319
X8.2539Y-8.3539
X8.2539Y-8.6539
X8.2539Y-9.7319
X8.2539Y-10.0319
X8.3539Y-8.3539
X8.3539Y-8.6539
X8.3539Y-9.7319
X8.3539Y-10.0319
X8.4539Y-8.3539
X8.4539Y-8.6539
X8.4539Y-9.7319
X8.4539Y-10.0319
X8.5539Y-8.3539
X8.5539Y-8.6539
X8.5539Y-9.7319
X8.5539Y-10.0319
X8.6539Y-8.3539
X8.6539Y-8.6539
X8.6539Y-9.7319
X8.6539Y-10.0319
X8.7539Y-8.3539
X8.7539Y-8.6539
X8.7539Y-9.7319
X8.7539Y-10.0319
X8.8539Y-8.3539
X8.8539Y-8.6539
X8.8539Y-9.7319
X8.8539Y-10.0319
X10.335Y-1.2004
X10.335Y-2.5784
X10.335Y-3.9563
X10.335Y-5.2949
X10.335Y-6.7122
X10.335Y-8.0902
X10.335Y-9.4681
X10.335Y-10.8461
X10.6886Y-0.8468
X10.6886Y-2.2248
X10.6886Y-3.6028
X10.6886Y-4.9413
X10.6886Y-6.3587
X10.6886Y-7.7366
X10.6886Y-9.1146
X10.6886Y-10.4925
T4
X2.8921Y-0.5406
X2.8921Y-0.6406
X2.9921Y-0.5406
X2.9921Y-0.6406
X3.0921Y-0.5406
X3.0921Y-0.6406
X9.8213Y-0.7874
X9.8213Y-1.1811
X9.8213Y-2.1654
X9.8213Y-2.5591
X9.8213Y-3.5433
X9.8213Y-3.937
X9.8213Y-4.8819
X9.8213Y-5.2756
X9.8213Y-6.2992
X9.8213Y-6.6929
X9.8213Y-7.6772
X9.8213Y-8.0709
X9.8213Y-9.0551
X9.8213Y-9.4488
X9.8213Y-10.4331
X9.8213Y-10.8268
X9.9213Y-1.1811
X9.9213Y-2.5591
X9.9213Y-3.937
X9.9213Y-5.2756
X9.9213Y-6.6929
X9.9213Y-8.0709
X9.9213Y-9.4488
X9.9213Y-10.8268
X10.0213Y-0.7874
X10.0213Y-1.1811
X10.0213Y-2.1654
X10.0213Y-2.5591
X10.0213Y-3.5433
X10.0213Y-3.937
X10.0213Y-4.8819
X10.0213Y-5.2756
X10.0213Y-6.2992
X10.0213Y-6.6929
X10.0213Y-7.6772
X10.0213Y-8.0709
X10.0213Y-9.0551
X10.0213Y-9.4488
X10.0213Y-10.4331
X10.0213Y-10.8268
T5
X8.4433Y-0.6299
X8.6433Y-0.6299
T6
X0.2362Y-0.2362
X0.2362Y-5.748
X0.2362Y-11.2992
X5.7874Y-0.2362
X5.7874Y-5.748
X5.7874Y-11.2992
X11.2992Y-0.2362
X11.2992Y-5.748
X11.2992Y-11.2992
T0
M30
