G04 #@! TF.FileFunction,Soldermask,Top*
%FSLAX46Y46*%
G04 Gerber Fmt 4.6, Leading zero omitted, Abs format (unit mm)*
G04 Created by KiCad (PCBNEW 4.0.7) date 2017 November 23, Thursday 22:23:32*
%MOMM*%
%LPD*%
G01*
G04 APERTURE LIST*
%ADD10C,0.100000*%
%ADD11C,2.800000*%
%ADD12R,2.000000X2.000000*%
%ADD13C,2.000000*%
%ADD14R,2.000000X2.800000*%
%ADD15O,2.000000X2.800000*%
%ADD16R,2.100000X2.100000*%
%ADD17O,2.100000X2.100000*%
%ADD18O,3.900120X2.398980*%
%ADD19O,2.000000X2.000000*%
%ADD20O,3.900000X3.900000*%
%ADD21R,2.200000X2.200000*%
%ADD22O,2.200000X2.200000*%
G04 APERTURE END LIST*
D10*
D11*
X42500000Y-54750000D03*
X77500000Y-54750000D03*
X112500000Y-54750000D03*
X147500000Y-54750000D03*
X182500000Y-54750000D03*
X217500000Y-54750000D03*
X252500000Y-54750000D03*
X287500000Y-54750000D03*
X42750000Y-89750000D03*
X77500000Y-89750000D03*
X112500000Y-89750000D03*
X147500000Y-89750000D03*
X182500000Y-89750000D03*
X217500000Y-89750000D03*
X252500000Y-89750000D03*
X287500000Y-89750000D03*
X42500000Y-124750000D03*
X77500000Y-124750000D03*
X112500000Y-124750000D03*
X147500000Y-124750000D03*
X182500000Y-124750000D03*
X217500000Y-124750000D03*
X252500000Y-124750000D03*
X287500000Y-124750000D03*
X42500000Y-159750000D03*
X77500000Y-159750000D03*
X112500000Y-159750000D03*
X147500000Y-159750000D03*
X182500000Y-159750000D03*
X217500000Y-159750000D03*
X252500000Y-159750000D03*
X287500000Y-159750000D03*
X42500000Y-194750000D03*
X77500000Y-194750000D03*
X112500000Y-194750000D03*
X147500000Y-194750000D03*
X182500000Y-194750000D03*
X217500000Y-194750000D03*
X252500000Y-194750000D03*
X287500000Y-194750000D03*
X42500000Y-229750000D03*
X77500000Y-229750000D03*
X112500000Y-229750000D03*
X147500000Y-229750000D03*
X182500000Y-229750000D03*
X217500000Y-229750000D03*
X252500000Y-229750000D03*
X287750000Y-229750000D03*
X42500000Y-264750000D03*
X77500000Y-264750000D03*
X112500000Y-264750000D03*
X147500000Y-264750000D03*
X182500000Y-264750000D03*
X217500000Y-264750000D03*
X252500000Y-264750000D03*
X287500000Y-264750000D03*
X42500000Y-299750000D03*
X77500000Y-299750000D03*
X112500000Y-299750000D03*
X147500000Y-299750000D03*
X182500000Y-299750000D03*
X217500000Y-299750000D03*
X252500000Y-299750000D03*
X287500000Y-299750000D03*
D12*
X36750000Y-62250000D03*
D13*
X31750000Y-62250000D03*
D12*
X71750000Y-61500000D03*
D13*
X66750000Y-61500000D03*
D12*
X106750000Y-62250000D03*
D13*
X101750000Y-62250000D03*
D12*
X141750000Y-62250000D03*
D13*
X136750000Y-62250000D03*
D12*
X176750000Y-61500000D03*
D13*
X171750000Y-61500000D03*
D12*
X211000000Y-61500000D03*
D13*
X206000000Y-61500000D03*
D12*
X246500000Y-61250000D03*
D13*
X241500000Y-61250000D03*
D12*
X281250000Y-61750000D03*
D13*
X276250000Y-61750000D03*
D11*
X51250000Y-46000000D03*
X86250000Y-46000000D03*
X121250000Y-46000000D03*
X156250000Y-46000000D03*
X191250000Y-46000000D03*
X226250000Y-46000000D03*
X261250000Y-46000000D03*
X296250000Y-46000000D03*
X51250000Y-81000000D03*
X86250000Y-81000000D03*
X121250000Y-81000000D03*
X156250000Y-81000000D03*
X191250000Y-81000000D03*
X226250000Y-81000000D03*
X261250000Y-81000000D03*
X296250000Y-81000000D03*
X51250000Y-116000000D03*
X86250000Y-116000000D03*
X121250000Y-116000000D03*
X156250000Y-116000000D03*
X191250000Y-116000000D03*
X226250000Y-116000000D03*
X261250000Y-116000000D03*
X296250000Y-116000000D03*
X51250000Y-151000000D03*
X86250000Y-151000000D03*
X121250000Y-151000000D03*
X156250000Y-151000000D03*
X191250000Y-151000000D03*
X226250000Y-151000000D03*
X261250000Y-151000000D03*
X296250000Y-151000000D03*
X51250000Y-186000000D03*
X86250000Y-186000000D03*
X121250000Y-186000000D03*
X156250000Y-186000000D03*
X191250000Y-186000000D03*
X226250000Y-186000000D03*
X261250000Y-186000000D03*
X296250000Y-186000000D03*
X51250000Y-221000000D03*
X86250000Y-221000000D03*
X121250000Y-221000000D03*
X156250000Y-221000000D03*
X191250000Y-221000000D03*
X226250000Y-221000000D03*
X261250000Y-221000000D03*
X296250000Y-221000000D03*
X51250000Y-256000000D03*
X86250000Y-256000000D03*
X121250000Y-256000000D03*
X156250000Y-256000000D03*
X191250000Y-256000000D03*
X226250000Y-256000000D03*
X261250000Y-256000000D03*
X296250000Y-256000000D03*
X51250000Y-291000000D03*
X86250000Y-291000000D03*
X121250000Y-291000000D03*
X156250000Y-291000000D03*
X191250000Y-291000000D03*
X226250000Y-291000000D03*
X261250000Y-291000000D03*
X296250000Y-291000000D03*
D14*
X160500000Y-76500000D03*
D15*
X188440000Y-68880000D03*
X163040000Y-76500000D03*
X185900000Y-68880000D03*
X165580000Y-76500000D03*
X183360000Y-68880000D03*
X168120000Y-76500000D03*
X180820000Y-68880000D03*
X170660000Y-76500000D03*
X178280000Y-68880000D03*
X173200000Y-76500000D03*
X175740000Y-68880000D03*
X175740000Y-76500000D03*
X173200000Y-68880000D03*
X178280000Y-76500000D03*
X170660000Y-68880000D03*
X180820000Y-76500000D03*
X168120000Y-68880000D03*
X183360000Y-76500000D03*
X165580000Y-68880000D03*
X185900000Y-76500000D03*
X163040000Y-68880000D03*
X188440000Y-76500000D03*
X160500000Y-68880000D03*
D14*
X159750000Y-145750000D03*
D15*
X187690000Y-138130000D03*
X162290000Y-145750000D03*
X185150000Y-138130000D03*
X164830000Y-145750000D03*
X182610000Y-138130000D03*
X167370000Y-145750000D03*
X180070000Y-138130000D03*
X169910000Y-145750000D03*
X177530000Y-138130000D03*
X172450000Y-145750000D03*
X174990000Y-138130000D03*
X174990000Y-145750000D03*
X172450000Y-138130000D03*
X177530000Y-145750000D03*
X169910000Y-138130000D03*
X180070000Y-145750000D03*
X167370000Y-138130000D03*
X182610000Y-145750000D03*
X164830000Y-138130000D03*
X185150000Y-145750000D03*
X162290000Y-138130000D03*
X187690000Y-145750000D03*
X159750000Y-138130000D03*
D14*
X159750000Y-216000000D03*
D15*
X187690000Y-208380000D03*
X162290000Y-216000000D03*
X185150000Y-208380000D03*
X164830000Y-216000000D03*
X182610000Y-208380000D03*
X167370000Y-216000000D03*
X180070000Y-208380000D03*
X169910000Y-216000000D03*
X177530000Y-208380000D03*
X172450000Y-216000000D03*
X174990000Y-208380000D03*
X174990000Y-216000000D03*
X172450000Y-208380000D03*
X177530000Y-216000000D03*
X169910000Y-208380000D03*
X180070000Y-216000000D03*
X167370000Y-208380000D03*
X182610000Y-216000000D03*
X164830000Y-208380000D03*
X185150000Y-216000000D03*
X162290000Y-208380000D03*
X187690000Y-216000000D03*
X159750000Y-208380000D03*
D14*
X160000000Y-286250000D03*
D15*
X187940000Y-278630000D03*
X162540000Y-286250000D03*
X185400000Y-278630000D03*
X165080000Y-286250000D03*
X182860000Y-278630000D03*
X167620000Y-286250000D03*
X180320000Y-278630000D03*
X170160000Y-286250000D03*
X177780000Y-278630000D03*
X172700000Y-286250000D03*
X175240000Y-278630000D03*
X175240000Y-286250000D03*
X172700000Y-278630000D03*
X177780000Y-286250000D03*
X170160000Y-278630000D03*
X180320000Y-286250000D03*
X167620000Y-278630000D03*
X182860000Y-286250000D03*
X165080000Y-278630000D03*
X185400000Y-286250000D03*
X162540000Y-278630000D03*
X187940000Y-286250000D03*
X160000000Y-278630000D03*
D14*
X54750000Y-76250000D03*
D15*
X82690000Y-68630000D03*
X57290000Y-76250000D03*
X80150000Y-68630000D03*
X59830000Y-76250000D03*
X77610000Y-68630000D03*
X62370000Y-76250000D03*
X75070000Y-68630000D03*
X64910000Y-76250000D03*
X72530000Y-68630000D03*
X67450000Y-76250000D03*
X69990000Y-68630000D03*
X69990000Y-76250000D03*
X67450000Y-68630000D03*
X72530000Y-76250000D03*
X64910000Y-68630000D03*
X75070000Y-76250000D03*
X62370000Y-68630000D03*
X77610000Y-76250000D03*
X59830000Y-68630000D03*
X80150000Y-76250000D03*
X57290000Y-68630000D03*
X82690000Y-76250000D03*
X54750000Y-68630000D03*
D14*
X55250000Y-146500000D03*
D15*
X83190000Y-138880000D03*
X57790000Y-146500000D03*
X80650000Y-138880000D03*
X60330000Y-146500000D03*
X78110000Y-138880000D03*
X62870000Y-146500000D03*
X75570000Y-138880000D03*
X65410000Y-146500000D03*
X73030000Y-138880000D03*
X67950000Y-146500000D03*
X70490000Y-138880000D03*
X70490000Y-146500000D03*
X67950000Y-138880000D03*
X73030000Y-146500000D03*
X65410000Y-138880000D03*
X75570000Y-146500000D03*
X62870000Y-138880000D03*
X78110000Y-146500000D03*
X60330000Y-138880000D03*
X80650000Y-146500000D03*
X57790000Y-138880000D03*
X83190000Y-146500000D03*
X55250000Y-138880000D03*
D14*
X54750000Y-216250000D03*
D15*
X82690000Y-208630000D03*
X57290000Y-216250000D03*
X80150000Y-208630000D03*
X59830000Y-216250000D03*
X77610000Y-208630000D03*
X62370000Y-216250000D03*
X75070000Y-208630000D03*
X64910000Y-216250000D03*
X72530000Y-208630000D03*
X67450000Y-216250000D03*
X69990000Y-208630000D03*
X69990000Y-216250000D03*
X67450000Y-208630000D03*
X72530000Y-216250000D03*
X64910000Y-208630000D03*
X75070000Y-216250000D03*
X62370000Y-208630000D03*
X77610000Y-216250000D03*
X59830000Y-208630000D03*
X80150000Y-216250000D03*
X57290000Y-208630000D03*
X82690000Y-216250000D03*
X54750000Y-208630000D03*
D14*
X54500000Y-285500000D03*
D15*
X82440000Y-277880000D03*
X57040000Y-285500000D03*
X79900000Y-277880000D03*
X59580000Y-285500000D03*
X77360000Y-277880000D03*
X62120000Y-285500000D03*
X74820000Y-277880000D03*
X64660000Y-285500000D03*
X72280000Y-277880000D03*
X67200000Y-285500000D03*
X69740000Y-277880000D03*
X69740000Y-285500000D03*
X67200000Y-277880000D03*
X72280000Y-285500000D03*
X64660000Y-277880000D03*
X74820000Y-285500000D03*
X62120000Y-277880000D03*
X77360000Y-285500000D03*
X59580000Y-277880000D03*
X79900000Y-285500000D03*
X57040000Y-277880000D03*
X82440000Y-285500000D03*
X54500000Y-277880000D03*
D14*
X265250000Y-76250000D03*
D15*
X293190000Y-68630000D03*
X267790000Y-76250000D03*
X290650000Y-68630000D03*
X270330000Y-76250000D03*
X288110000Y-68630000D03*
X272870000Y-76250000D03*
X285570000Y-68630000D03*
X275410000Y-76250000D03*
X283030000Y-68630000D03*
X277950000Y-76250000D03*
X280490000Y-68630000D03*
X280490000Y-76250000D03*
X277950000Y-68630000D03*
X283030000Y-76250000D03*
X275410000Y-68630000D03*
X285570000Y-76250000D03*
X272870000Y-68630000D03*
X288110000Y-76250000D03*
X270330000Y-68630000D03*
X290650000Y-76250000D03*
X267790000Y-68630000D03*
X293190000Y-76250000D03*
X265250000Y-68630000D03*
D14*
X265000000Y-146000000D03*
D15*
X292940000Y-138380000D03*
X267540000Y-146000000D03*
X290400000Y-138380000D03*
X270080000Y-146000000D03*
X287860000Y-138380000D03*
X272620000Y-146000000D03*
X285320000Y-138380000D03*
X275160000Y-146000000D03*
X282780000Y-138380000D03*
X277700000Y-146000000D03*
X280240000Y-138380000D03*
X280240000Y-146000000D03*
X277700000Y-138380000D03*
X282780000Y-146000000D03*
X275160000Y-138380000D03*
X285320000Y-146000000D03*
X272620000Y-138380000D03*
X287860000Y-146000000D03*
X270080000Y-138380000D03*
X290400000Y-146000000D03*
X267540000Y-138380000D03*
X292940000Y-146000000D03*
X265000000Y-138380000D03*
D14*
X265000000Y-216250000D03*
D15*
X292940000Y-208630000D03*
X267540000Y-216250000D03*
X290400000Y-208630000D03*
X270080000Y-216250000D03*
X287860000Y-208630000D03*
X272620000Y-216250000D03*
X285320000Y-208630000D03*
X275160000Y-216250000D03*
X282780000Y-208630000D03*
X277700000Y-216250000D03*
X280240000Y-208630000D03*
X280240000Y-216250000D03*
X277700000Y-208630000D03*
X282780000Y-216250000D03*
X275160000Y-208630000D03*
X285320000Y-216250000D03*
X272620000Y-208630000D03*
X287860000Y-216250000D03*
X270080000Y-208630000D03*
X290400000Y-216250000D03*
X267540000Y-208630000D03*
X292940000Y-216250000D03*
X265000000Y-208630000D03*
D14*
X265000000Y-285500000D03*
D15*
X292940000Y-277880000D03*
X267540000Y-285500000D03*
X290400000Y-277880000D03*
X270080000Y-285500000D03*
X287860000Y-277880000D03*
X272620000Y-285500000D03*
X285320000Y-277880000D03*
X275160000Y-285500000D03*
X282780000Y-277880000D03*
X277700000Y-285500000D03*
X280240000Y-277880000D03*
X280240000Y-285500000D03*
X277700000Y-277880000D03*
X282780000Y-285500000D03*
X275160000Y-277880000D03*
X285320000Y-285500000D03*
X272620000Y-277880000D03*
X287860000Y-285500000D03*
X270080000Y-277880000D03*
X290400000Y-285500000D03*
X267540000Y-277880000D03*
X292940000Y-285500000D03*
X265000000Y-277880000D03*
D14*
X235000000Y-76500000D03*
D15*
X252780000Y-68880000D03*
X237540000Y-76500000D03*
X250240000Y-68880000D03*
X240080000Y-76500000D03*
X247700000Y-68880000D03*
X242620000Y-76500000D03*
X245160000Y-68880000D03*
X245160000Y-76500000D03*
X242620000Y-68880000D03*
X247700000Y-76500000D03*
X240080000Y-68880000D03*
X250240000Y-76500000D03*
X237540000Y-68880000D03*
X252780000Y-76500000D03*
X235000000Y-68880000D03*
D11*
X51250000Y-63500000D03*
X51250000Y-98500000D03*
X51250000Y-133500000D03*
X51250000Y-168500000D03*
X51250000Y-203500000D03*
X51250000Y-238500000D03*
X51250000Y-273500000D03*
X51250000Y-308500000D03*
X86250000Y-63500000D03*
X86250000Y-98500000D03*
X86250000Y-133500000D03*
X86250000Y-168500000D03*
X86250000Y-203500000D03*
X86250000Y-238500000D03*
X86250000Y-273500000D03*
X86250000Y-308500000D03*
X121250000Y-63500000D03*
X121250000Y-98750000D03*
X121250000Y-133500000D03*
X121250000Y-168500000D03*
X121250000Y-203500000D03*
X121250000Y-238500000D03*
X121250000Y-273500000D03*
X121250000Y-308500000D03*
X156250000Y-63500000D03*
X156250000Y-98500000D03*
X156250000Y-133500000D03*
X156250000Y-168500000D03*
X156250000Y-203500000D03*
X156250000Y-238500000D03*
X156250000Y-273500000D03*
X156250000Y-308500000D03*
X191250000Y-63500000D03*
X191250000Y-98500000D03*
X191250000Y-133500000D03*
X191250000Y-168500000D03*
X191250000Y-203500000D03*
X191250000Y-238500000D03*
X191250000Y-273500000D03*
X191250000Y-308500000D03*
X226250000Y-63500000D03*
X226250000Y-98500000D03*
X226250000Y-133500000D03*
X226250000Y-168500000D03*
X226250000Y-203750000D03*
X226250000Y-238500000D03*
X226250000Y-273500000D03*
X226250000Y-308500000D03*
X261250000Y-63500000D03*
X261250000Y-98500000D03*
X261250000Y-133500000D03*
X261250000Y-168500000D03*
X261250000Y-203500000D03*
X261250000Y-238500000D03*
X261250000Y-273500000D03*
X261250000Y-308500000D03*
X296250000Y-63500000D03*
X296250000Y-98500000D03*
X296250000Y-133500000D03*
X296250000Y-168500000D03*
X296250000Y-203500000D03*
X296250000Y-238500000D03*
X296250000Y-273500000D03*
X296250000Y-308500000D03*
D16*
X312000000Y-83750000D03*
D17*
X312000000Y-81210000D03*
X312000000Y-78670000D03*
X312000000Y-76130000D03*
X312000000Y-73590000D03*
X312000000Y-71050000D03*
X312000000Y-68510000D03*
X312000000Y-65970000D03*
X312000000Y-63430000D03*
X312000000Y-60890000D03*
D18*
X312000000Y-53000060D03*
X312000000Y-49499940D03*
D11*
X60000000Y-54750000D03*
X95000000Y-54750000D03*
X130000000Y-54750000D03*
X165000000Y-54750000D03*
X200000000Y-54750000D03*
X235000000Y-54750000D03*
X270000000Y-54750000D03*
X305000000Y-54750000D03*
X60000000Y-89750000D03*
X95000000Y-89750000D03*
X130000000Y-89750000D03*
X165000000Y-89750000D03*
X200000000Y-89750000D03*
X235000000Y-89750000D03*
X270000000Y-89750000D03*
X305000000Y-89750000D03*
X60000000Y-124750000D03*
X95000000Y-124750000D03*
X130000000Y-124750000D03*
X165000000Y-124750000D03*
X200000000Y-124750000D03*
X235000000Y-124750000D03*
X270000000Y-124750000D03*
X305000000Y-124750000D03*
X60000000Y-159750000D03*
X95000000Y-159750000D03*
X130000000Y-159750000D03*
X165000000Y-159750000D03*
X200000000Y-159750000D03*
X235000000Y-159750000D03*
X270000000Y-159750000D03*
X305000000Y-159750000D03*
X60000000Y-194750000D03*
X95000000Y-194750000D03*
X130000000Y-194750000D03*
X165000000Y-194750000D03*
X200000000Y-194750000D03*
X235000000Y-194750000D03*
X270000000Y-194750000D03*
X305000000Y-194750000D03*
X60000000Y-229750000D03*
X95000000Y-229750000D03*
X130000000Y-229750000D03*
X165000000Y-229750000D03*
X200000000Y-229750000D03*
X235000000Y-229750000D03*
X270000000Y-229750000D03*
X305000000Y-229750000D03*
X60000000Y-264750000D03*
X95000000Y-264750000D03*
X130000000Y-264750000D03*
X165000000Y-264750000D03*
X200000000Y-264750000D03*
X235000000Y-264750000D03*
X270000000Y-264750000D03*
X305000000Y-264750000D03*
X60000000Y-299750000D03*
X95000000Y-299750000D03*
X130000000Y-299750000D03*
X165000000Y-299750000D03*
X200000000Y-299750000D03*
X235000000Y-299750000D03*
X270000000Y-299750000D03*
X305000000Y-299750000D03*
D13*
X57750000Y-39750000D03*
D19*
X45050000Y-39750000D03*
D13*
X92750000Y-40000000D03*
D19*
X80050000Y-40000000D03*
D13*
X127500000Y-40000000D03*
D19*
X114800000Y-40000000D03*
D13*
X162500000Y-40000000D03*
D19*
X149800000Y-40000000D03*
D13*
X197750000Y-40000000D03*
D19*
X185050000Y-40000000D03*
D13*
X232500000Y-40000000D03*
D19*
X219800000Y-40000000D03*
D13*
X268000000Y-40000000D03*
D19*
X255300000Y-40000000D03*
D13*
X302500000Y-40000000D03*
D19*
X289800000Y-40000000D03*
D13*
X173250000Y-81000000D03*
D19*
X160550000Y-81000000D03*
D13*
X162250000Y-133750000D03*
D19*
X174950000Y-133750000D03*
D13*
X162500000Y-203750000D03*
D19*
X175200000Y-203750000D03*
D13*
X162500000Y-274000000D03*
D19*
X175200000Y-274000000D03*
D13*
X67500000Y-81000000D03*
D19*
X54800000Y-81000000D03*
D13*
X57750000Y-134500000D03*
D19*
X70450000Y-134500000D03*
D13*
X57500000Y-204250000D03*
D19*
X70200000Y-204250000D03*
D13*
X57000000Y-273750000D03*
D19*
X69700000Y-273750000D03*
D13*
X278000000Y-81000000D03*
D19*
X265300000Y-81000000D03*
D13*
X267500000Y-133750000D03*
D19*
X280200000Y-133750000D03*
D13*
X267000000Y-203750000D03*
D19*
X279700000Y-203750000D03*
D13*
X267500000Y-273250000D03*
D19*
X280200000Y-273250000D03*
D20*
X34290000Y-38090000D03*
D21*
X31750000Y-54750000D03*
D22*
X34290000Y-54750000D03*
X36830000Y-54750000D03*
D20*
X69290000Y-38090000D03*
D21*
X66750000Y-54750000D03*
D22*
X69290000Y-54750000D03*
X71830000Y-54750000D03*
D20*
X104290000Y-38090000D03*
D21*
X101750000Y-54750000D03*
D22*
X104290000Y-54750000D03*
X106830000Y-54750000D03*
D20*
X139040000Y-38090000D03*
D21*
X136500000Y-54750000D03*
D22*
X139040000Y-54750000D03*
X141580000Y-54750000D03*
D20*
X174040000Y-38090000D03*
D21*
X171500000Y-54750000D03*
D22*
X174040000Y-54750000D03*
X176580000Y-54750000D03*
D20*
X208290000Y-38090000D03*
D21*
X205750000Y-54750000D03*
D22*
X208290000Y-54750000D03*
X210830000Y-54750000D03*
D20*
X244040000Y-38090000D03*
D21*
X241500000Y-54750000D03*
D22*
X244040000Y-54750000D03*
X246580000Y-54750000D03*
D20*
X278790000Y-38090000D03*
D21*
X276250000Y-54750000D03*
D22*
X278790000Y-54750000D03*
X281330000Y-54750000D03*
M02*
